<svg height="100px" width="100px" fill="#1A1A1A" xmlns="http://www.w3.org/2000/svg" xmlns:xlink="http://www.w3.org/1999/xlink" version="1.1" x="0px" y="0px" viewBox="0 0 100 100" style="enable-background:new 0 0 100 100;" xml:space="preserve">
	<path d="M19.1459961,31.7255859c1.2636719,2.5644531,3.3027344,4.8857422,5.4541016,6.2089844  c1.6434326,1.0116577,3.5499878,1.5604248,5.4875488,1.637146c-2.0827637,5.7625732-3.248291,12.1941528-3.248291,18.5357056  c0,12.677063,4.4458618,20.0655518,13.7958984,22.7357788V89c0,0.5527344,0.4477539,1,1,1s1-0.4472656,1-1v-7.6685181  c2.1793213,0.4386597,4.5726929,0.6743774,7.2255859,0.6743774c2.7640381,0,5.2537231-0.2488403,7.5039062-0.7253418V89  c0,0.5527344,0.4477539,1,1,1s1-0.4472656,1-1v-8.2345581c9.1612549-2.7366333,13.5170898-10.1061401,13.5170898-22.65802  c0-6.3354492-1.1633911-12.7608032-3.2423096-18.519165c2.0202637-0.0371704,4.0166016-0.6001587,5.7276611-1.6536865  c2.1513672-1.3232422,4.1904297-3.6445312,5.4541016-6.2089844c1.3461914-2.7333984,1.5776367-5.1787109,0.6347656-6.7109375  c-2.0952148-3.4042969-9.3120117-1.8457031-13.5649414,0.7705078c-1.4726562,0.9067993-2.7340088,2.0114136-3.7269897,3.2227173  c-1.3295288-1.8161011-2.7479858-3.3674927-4.2371826-4.6306763l3.3538818-4.7478638  c0.4841309,0.1586304,0.991333,0.2661743,1.527771,0.2661743c2.7280273,0,4.9472656-2.2197266,4.9472656-4.9482422  C69.7558594,12.2197266,67.5366211,10,64.8085938,10s-4.9477539,2.2197266-4.9477539,4.9472656  c0,1.4691772,0.656311,2.7763062,1.6762695,3.6833496l-3.1991577,4.5288696  c-2.6794434-1.854187-5.5428467-2.8342896-8.4771118-2.8342896c-3.0167236,0-5.9597778,1.0303955-8.7037354,2.9877319  l-3.3078003-4.6820679c1.0201416-0.9070435,1.6765747-2.2142334,1.6765747-3.6835938  C39.5258789,12.2197266,37.3061523,10,34.578125,10s-4.9477539,2.2197266-4.9477539,4.9472656  c0,2.7285156,2.2197266,4.9482422,4.9477539,4.9482422c0.5363159,0,1.043396-0.1074829,1.5274048-0.2660522l3.4827271,4.9296875  c-1.3691406,1.1907349-2.6777954,2.6231689-3.9105225,4.2851562c-0.9727783-1.1478882-2.1943359-2.1925659-3.6020508-3.0591431  c-4.2509766-2.6152344-11.4692383-4.1728516-13.5644531-0.7705078  C17.5683594,26.546875,17.7998047,28.9921875,19.1459961,31.7255859z M64.8085938,12  c1.625,0,2.9472656,1.3222656,2.9472656,2.9472656c0,1.6259766-1.3222656,2.9482422-2.9472656,2.9482422  c-1.6254883,0-2.9477539-1.3222656-2.9477539-2.9482422C61.8608398,13.3222656,63.1831055,12,64.8085938,12z M31.6303711,14.9472656  c0-1.625,1.3222656-2.9472656,2.9477539-2.9472656s2.9477539,1.3222656,2.9477539,2.9472656  c0,1.6259766-1.3222656,2.9482422-2.9477539,2.9482422S31.6303711,16.5732422,31.6303711,14.9472656z M49.8608398,80.0058594  c-9.7871094,0-21.0214844-2.4892578-21.0214844-21.8984375c0-0.9719238,0.0332642-1.9376831,0.0859985-2.8984375h41.8704834  c0.0527344,0.9607544,0.0859985,1.9265137,0.0859985,2.8984375C70.8818359,77.5166016,59.6479492,80.0058594,49.8608398,80.0058594z   M68.9394531,27.4882812c4.0424805-2.4873047,9.7001953-3.2324219,10.8134766-1.4248047  c0.5493164,0.8925781,0.2641602,2.7675781-0.7260742,4.7773438c-1.1040039,2.2412109-2.8637695,4.2558594-4.7075195,5.390625  c-1.6130981,0.9921875-3.5316162,1.4602661-5.4417114,1.347168c-0.7651367-1.8606567-1.6195679-3.6460571-2.5802612-5.3051758  c-0.3071289-0.5304565-0.6221924-1.0407104-0.9420166-1.5380859C66.2446289,29.515564,67.4667358,28.3948975,68.9394531,27.4882812z   M49.8608398,22.3251953c10.0323486,0,19.2441406,14.1835938,20.789917,30.8837891H29.0704346  C30.6162109,36.5087891,39.828064,22.3251953,49.8608398,22.3251953z M20.2143555,26.0634766  c1.112793-1.8076172,6.7719727-1.0605469,10.8129883,1.4248047c1.4035034,0.8637695,2.574585,1.9232788,3.4530029,3.0758667  c-0.3590698,0.5515137-0.7131958,1.1164551-1.0565186,1.7092896c-0.9630127,1.6630249-1.819458,3.4526978-2.5859375,5.3181763  c-1.8239746,0.0574951-3.6479492-0.4117432-5.1899414-1.3601685c-1.84375-1.1347656-3.6035156-3.1494141-4.7075195-5.390625  C19.9501953,28.8310547,19.6650391,26.9560547,20.2143555,26.0634766z">
	</path>
	<path d="M59.0390625,63.7851562c-2.2539062-0.3740234-4.7817383,1.3232422-5.7470703,3.859375  c-0.5400391,1.4179688-0.4853516,2.8642578,0.1489258,3.9667969c0.5180664,0.8994141,1.375,1.4892578,2.4145508,1.6601562  c0.2080078,0.0332031,0.4174805,0.0498047,0.628418,0.0498047c2.0805664,0,4.2421875-1.609375,5.1176758-3.9111328  c0.5400391-1.4179688,0.4858398-2.8642578-0.1489258-3.9667969C60.9345703,64.5439453,60.0776367,63.9550781,59.0390625,63.7851562z   M59.7324219,68.6992188c-0.6171875,1.6230469-2.2441406,2.8095703-3.5532227,2.5986328  c-0.4477539-0.0742188-0.7856445-0.3037109-1.0043945-0.6845703c-0.3291016-0.5712891-0.3344727-1.4150391-0.0136719-2.2578125  c0.6181641-1.6230469,2.2558594-2.8144531,3.5541992-2.5966797c0.4477539,0.0732422,0.7851562,0.3027344,1.0039062,0.6826172  C60.0483398,67.0126953,60.0532227,67.8564453,59.7324219,68.6992188z">
	</path>
	<path d="M40.1586914,63.9375c-0.9902344,0.2470703-1.7475586,0.8828125-2.1328125,1.7919922  c-0.4990234,1.1767578-0.3168945,2.6601562,0.4995117,4.0712891c1.1928711,2.0615234,3.409668,3.4277344,5.3745117,3.4277344  c0.3183594,0,0.6303711-0.0361328,0.9301758-0.1103516c0.9897461-0.2470703,1.7470703-0.8828125,2.1323242-1.7919922  c0.4995117-1.1757812,0.3173828-2.6601562-0.4990234-4.0722656C45.0766602,64.859375,42.3066406,63.40625,40.1586914,63.9375z   M45.121582,70.5458984c-0.1401367,0.3300781-0.3935547,0.5361328-0.7749023,0.6308594  c-1.2631836,0.3125-3.1748047-0.7958984-4.0898438-2.3779297c-0.4916992-0.8496094-0.637207-1.7050781-0.3896484-2.2880859  c0.1396484-0.3300781,0.3935547-0.5371094,0.7749023-0.6318359c0.1450195-0.0361328,0.2988281-0.0537109,0.4584961-0.0537109  c1.230957,0,2.8217773,1.03125,3.6313477,2.4306641C45.2236328,69.1054688,45.3691406,69.9609375,45.121582,70.5458984z">
	</path>
	<path d="M54.0927734,44.8681641c0.5522461,0,1-0.4472656,1-1c0-1.4462891,1.1918945-2.6230469,2.6567383-2.6230469  c1.465332,0,2.6572266,1.1767578,2.6572266,2.6230469c0,0.5527344,0.4477539,1,1,1s1-0.4472656,1-1  c0-2.5488281-2.0893555-4.6230469-4.6572266-4.6230469s-4.6567383,2.0742188-4.6567383,4.6230469  C53.0927734,44.4208984,53.5405273,44.8681641,54.0927734,44.8681641z">
	</path>
	<path d="M38.3149414,44.8681641c0.5522461,0,1-0.4472656,1-1c0-1.4462891,1.1918945-2.6230469,2.6567383-2.6230469  s2.6567383,1.1767578,2.6567383,2.6230469c0,0.5527344,0.4477539,1,1,1s1-0.4472656,1-1  c0-2.5488281-2.0888672-4.6230469-4.6567383-4.6230469s-4.6567383,2.0742188-4.6567383,4.6230469  C37.3149414,44.4208984,37.7626953,44.8681641,38.3149414,44.8681641z">
	</path>
</svg>
