<svg height="100px" width="100px" fill="#1A1A1A" xmlns="http://www.w3.org/2000/svg" xmlns:xlink="http://www.w3.org/1999/xlink" version="1.1" x="0px" y="0px" viewBox="0 0 100 100" style="enable-background:new 0 0 100 100;" xml:space="preserve">
	<path d="M92,45.2l-3.7,0.3c-2,0.2-3.7,1.4-4.5,3.2c-1.1-1.7-2.9-2.6-4.9-2.5l-2.8,0.2c-1.3,0.1-2.3,1.2-2.3,2.5  c0.1,5.1,3.8,9.2,8.7,10.1v2.3c0,2.1-1.7,3.7-3.7,3.7c-2.1,0-3.7-1.7-3.7-3.7c0-0.7-0.1-2.6-0.3-3.6C70.6,42,56.4,31,40.2,31  C20.6,31,4.6,47,4.6,66.6c0,19.9,16.8,19.9,33.1,19.9l31.5,0c6.1,0,11.7-2.7,15.5-7.4c3.8-4.7,5.3-10.8,4-16.7l-0.8-4  c2.8-1.1,5.1-3.4,6.1-6.3c0.6-1.6,0.7-3.2,0.5-4.9C94.4,46,93.3,45.1,92,45.2z M83.3,77.9c-3.4,4.2-8.5,6.7-14,6.7H40.2l-2.5,0  c-19.3,0-31.1-1.2-31.1-17.9C6.6,48.1,21.7,33,40.2,33c15.3,0,28.7,10.3,32.5,25.1c0.2,0.7,0.3,2.3,0.3,3.1c0,3.2,2.6,5.7,5.7,5.7  s5.7-2.6,5.7-5.7v-4.9c0-0.4,0.3-0.5,0.5-0.5c0.2,0,0.5,0,0.6,0.4l1.4,6.6C88,68.2,86.7,73.6,83.3,77.9z M92.2,51.5  c-0.8,2.2-2.5,4-4.6,5l-0.1-0.6c-0.3-1.3-1.4-2.1-2.7-2c-1.3,0.1-2.3,1.2-2.3,2.5V57c-3.8-0.8-6.6-4.1-6.7-8.1  c0-0.2,0.2-0.4,0.4-0.4l2.8-0.2c1.3-0.1,2.4,0.5,3.1,1.6l0.3,0.6c0.3,0.6,0.9,0.9,1.6,0.8c0.7-0.1,1.2-0.5,1.4-1.1l0.1-0.2  c0.4-1.3,1.5-2.2,2.9-2.3l3.7-0.3c0.2,0,0.5,0.1,0.5,0.4C92.8,48.9,92.7,50.2,92.2,51.5z">
	</path>
	<path d="M78.5,69.5c-0.6,0-1.1-0.1-1.6-0.2c-0.3-0.1-0.5,0.1-0.6,0.4c-0.1,0.3,0.1,0.5,0.4,0.6  c0.6,0.1,1.2,0.2,1.8,0.2c0.3,0,0.5-0.2,0.5-0.5S78.8,69.5,78.5,69.5z">
	</path>
	<path d="M71.3,62.2c0-3-1.1-9.2-7.5-16.8c-8.9-10.5-21.7-10.6-22-10.6c0,0,0,0,0,0c-0.3,0-0.5,0.2-0.5,0.5  c0,0.3,0.2,0.5,0.5,0.5c0,0,0,0,0,0C42,35.7,54.4,35.8,63,46c6.2,7.4,7.2,13.3,7.2,16.2c0,2.4,0.9,4.5,2.5,6  c0.1,0.1,0.2,0.1,0.3,0.1c0.1,0,0.3-0.1,0.4-0.2c0.2-0.2,0.2-0.5,0-0.7C72,66.2,71.3,64.3,71.3,62.2z">
	</path>
	<path d="M45.3,18.3c-1.2,0-2.4,0.5-3.2,1.2c-0.7-3.3-3.6-5.8-7.2-5.8c-4,0-7.3,3.3-7.3,7.3c0,0.6,0.4,1,1,1  s1-0.4,1-1c0-2.9,2.4-5.3,5.3-5.3s5.3,2.4,5.3,5.3v2.4v4.5v0.3c0,0.6,0.4,1,1,1s1-0.4,1-1v-0.3v-4.5c0-1.7,1.4-3.1,3.1-3.1  s3.1,1.4,3.1,3.1c0,0.6,0.4,1,1,1s1-0.4,1-1C50.4,20.5,48.1,18.3,45.3,18.3z">
	</path>
	<path d="M49.4,25.3c-0.6,0-1,0.5-1,1s0.4,1,1,1s1-0.4,1-1v-0.1C50.4,25.7,49.9,25.3,49.4,25.3z">
	</path>
	<path d="M15.9,59.2c-2.5,0-4.6,2-4.6,4.6s2,4.6,4.6,4.6s4.6-2,4.6-4.6S18.4,59.2,15.9,59.2z M15.9,60.2  c1.8,0,3.3,1.3,3.5,3.1h-7C12.6,61.5,14.1,60.2,15.9,60.2z M15.9,67.3c-1.8,0-3.3-1.3-3.5-3.1h1.5c0.2,0.9,1,1.6,2,1.6  s1.8-0.7,2-1.6h1.5C19.1,66,17.7,67.3,15.9,67.3z">
	</path>
</svg>
